<?xml version='1.0' encoding='utf-8'?>
<svg xmlns="http://www.w3.org/2000/svg" width="1920" height="1080" viewBox="0 0 1920 1080" data-theme="dark" data-semantic-intent="uncertain_compare" data-relation-type="hypothesis_comparison" data-site-visual-identity="signal-cobalt">
  <style>
        @font-face {
            font-family: 'Inter';
            src: url('assets/fonts/Inter-Regular.ttf') format('truetype');
            font-weight: 400;
            font-style: normal;
            font-display: swap;
        }
        @font-face {
            font-family: 'Inter';
            src: url('assets/fonts/Inter-Bold.ttf') format('truetype');
            font-weight: 600;
            font-style: normal;
            font-display: swap;
        }
        @font-face {
            font-family: 'Inter';
            src: url('assets/fonts/Inter-Bold.ttf') format('truetype');
            font-weight: 800;
            font-style: normal;
            font-display: swap;
        }
        
:root {
    --background: #0f172a;
    --panel: #1e293b;
    --primary-text: #f1f5f9;
    --muted-text: #94a3b8;
    --inverse-text: #0f172a;
    --border: #334155;
    --shadow-color: #000000;
    --icon-pad-bg: #1e293b;
    --art-glow: #7dd3fc;
    --art-glow-opacity: 0.18;
    --art-sheen: #ffffff;
    --art-sheen-opacity: 0.18;
    --art-shadow: #000000;
    --art-shadow-opacity: 0.28;
    --art-muted-line: #64748b;
    --art-panel-tint: #1e293b;
    --semantic-risk: #f87171;
    --semantic-warning: #fb923c;
    --semantic-uncertain: #fbbf24;
    --semantic-evidence: #60a5fa;
    --semantic-claim: #c084fc;
    --semantic-positive: #4ade80;
    --semantic-outcome: #22d3ee;
    --font-family: 'Inter', 'Segoe UI', 'Kalam', Roboto, Helvetica, Arial, sans-serif;
    --radius-xl: 16px;
    --font-family-headline: 'Segoe UI Variable Display', 'Aptos Display', 'Inter', 'Segoe UI', Helvetica, Arial, sans-serif;
    --font-family-body: 'Segoe UI Variable Text', 'Aptos', 'Inter', 'Segoe UI', Helvetica, Arial, sans-serif;
    --font-heading: var(--font-family-headline);
    --font-body: var(--font-family-body);
    --font-size-h1: 64px;
    --font-size-h2: 42px;
    --font-size-h3: 29px;
    --font-size-body: 21px;
    --font-size-caption: 17px;
    --secondary-text: var(--muted-text);
    --panel-border: var(--border);
    --font-weight-normal: 400;
    --font-weight-medium: 500;
    --font-weight-semibold: 600;
    --font-weight-bold: 700;
    --spacing-gutter-pct: 0.07;
    --spacing-top-pct: 0.15;
    --spacing-bottom-pct: 0.07;
    --spacing-title-y-pct: 0.055;
    --accent-1: #93c5fd;
    --accent-2: #60a5fa;
    --accent-3: #818cf8;
    --accent-4: #a78bfa;
    --accent-5: #38bdf8;
    --accent-6: #fb923c;
}
:root[data-theme="dark"] {
    --background: #0f172a;
    --panel: #1e293b;
    --primary-text: #f1f5f9;
    --muted-text: #94a3b8;
    --inverse-text: #0f172a;
    --border: #334155;
    --shadow-color: #000000;
    --icon-pad-bg: #1e293b;
    --art-glow: #7dd3fc;
    --art-glow-opacity: 0.18;
    --art-sheen: #ffffff;
    --art-sheen-opacity: 0.18;
    --art-shadow: #000000;
    --art-shadow-opacity: 0.28;
    --art-muted-line: #64748b;
    --art-panel-tint: #1e293b;
    --semantic-risk: #f87171;
    --semantic-warning: #fb923c;
    --semantic-uncertain: #fbbf24;
    --semantic-evidence: #60a5fa;
    --semantic-claim: #c084fc;
    --semantic-positive: #4ade80;
    --semantic-outcome: #22d3ee;
    --accent-1: #93c5fd;
    --accent-2: #60a5fa;
    --accent-3: #818cf8;
    --accent-4: #a78bfa;
    --accent-5: #38bdf8;
    --accent-6: #fb923c;
}
:root[data-theme="light"] {
    --background: #f8fafc;
    --panel: #ffffff;
    --primary-text: #0f172a;
    --muted-text: #64748b;
    --inverse-text: #ffffff;
    --border: #e2e8f0;
    --shadow-color: #000000;
    --icon-pad-bg: #1e293b;
    --art-glow: #0891b2;
    --art-glow-opacity: 0.10;
    --art-sheen: #ffffff;
    --art-sheen-opacity: 0.34;
    --art-shadow: #0f172a;
    --art-shadow-opacity: 0.14;
    --art-muted-line: #94a3b8;
    --art-panel-tint: #f1f5f9;
    --semantic-risk: #b91c1c;
    --semantic-warning: #c2410c;
    --semantic-uncertain: #a16207;
    --semantic-evidence: #1d4ed8;
    --semantic-claim: #6d28d9;
    --semantic-positive: #15803d;
    --semantic-outcome: #0e7490;
    --accent-1: #1d4ed8;
    --accent-2: #2563eb;
    --accent-3: #4f46e5;
    --accent-4: #6d28d9;
    --accent-5: #0369a1;
    --accent-6: #c2410c;
}</style>
  <rect x="0" y="0" width="1.92E+3" height="1.08E+3" fill="#0f172a" stroke="none" id="programmatic_background"/>
  <line id="HEADER_DECOR" x1="960.0" x2="1080.0" y1="85.0" y2="85.0" stroke="var(--accent-1)" stroke-width="6" stroke-linecap="round"/>
  <defs>
    <pattern id="svg248ba160-napkin-hatch" patternUnits="userSpaceOnUse" width="12" height="12">
      <path d="M -3 12 L 12 -3 M 0 15 L 15 0" fill="none" stroke="var(--primary-text)" stroke-width="1" stroke-opacity="0.05"/>
    </pattern>
    <filter id="svg248ba160-shadow" x="-30%" y="-30%" width="160%" height="160%">
      <feDropShadow dx="0" dy="2" stdDeviation="3" flood-color="#000000" flood-opacity="0.08"/>
      <feDropShadow dx="0" dy="6" stdDeviation="10" flood-color="#000000" flood-opacity="0.12"/>
    </filter>
    <marker id="svg248ba160-arrowhead" markerWidth="10" markerHeight="10" refX="9" refY="5" orient="auto">
      <path d="M 0 0 L 10 5 L 0 10 Z" fill="var(--accent-1)"/>
    </marker>
    <filter id="svg248ba160-text-glow" x="-20%" y="-20%" width="140%" height="140%">
      <feDropShadow dx="0" dy="0" stdDeviation="2" flood-color="#000000" flood-opacity="0.4"/>
    </filter>
    <radialGradient id="svg248ba160-universal-edge-vignette" cx="50%" cy="50%" r="72%">
      <stop offset="0%" stop-color="var(--background)" stop-opacity="0"/>
      <stop offset="72%" stop-color="var(--background)" stop-opacity="0.12"/>
      <stop offset="100%" stop-color="var(--primary-text)" stop-opacity="0.08"/>
    </radialGradient>
    <linearGradient id="svg248ba160-universal-surface-sheen" x1="0%" y1="0%" x2="100%" y2="100%">
      <stop offset="0%" stop-color="var(--art-sheen)" stop-opacity="var(--art-sheen-opacity)"/>
      <stop offset="46%" stop-color="var(--art-sheen)" stop-opacity="0.035"/>
      <stop offset="100%" stop-color="var(--art-panel-tint)" stop-opacity="0.14"/>
    </linearGradient>
    <radialGradient id="svg248ba160-universal-icon-aura" cx="50%" cy="42%" r="64%">
      <stop offset="0%" stop-color="var(--art-glow)" stop-opacity="var(--art-glow-opacity)"/>
      <stop offset="100%" stop-color="var(--background)" stop-opacity="0"/>
    </radialGradient>
    <linearGradient id="svg248ba160-card-panel-sheen" x1="0%" y1="0%" x2="100%" y2="100%">
      <stop offset="0%" stop-color="var(--inverse-text)" stop-opacity="0.20"/>
      <stop offset="48%" stop-color="var(--inverse-text)" stop-opacity="0.04"/>
      <stop offset="100%" stop-color="var(--background)" stop-opacity="0.16"/>
    </linearGradient>
    <radialGradient id="svg248ba160-card-icon-glow" cx="50%" cy="35%" r="62%">
      <stop offset="0%" stop-color="var(--inverse-text)" stop-opacity="0.22"/>
      <stop offset="100%" stop-color="var(--background)" stop-opacity="0"/>
    </radialGradient>
  </defs>
  <rect width="100%" height="100%" fill="var(--background)" id="CANVAS_BG"/>
  <rect width="100%" height="100%" fill="url(#svg248ba160-napkin-hatch)"/>
  <rect id="UNIVERSAL_EDGE_VIGNETTE" width="100%" height="100%" fill="url(#svg248ba160-universal-edge-vignette)" opacity="0.62"/>
  <text id="TITLE" x="960.0" y="59" font-size="48" font-weight="700" fill="#f1f5f9" text-anchor="middle" style="font-size: 69px; font-family: 'Segoe UI Variable Display', 'Aptos Display', 'Inter', 'Segoe UI', Helvetica, Arial, sans-serif; font-weight: 800; font-kerning: normal; font-feature-settings: &quot;kern&quot; 1, &quot;liga&quot; 1; letter-spacing:-1.2px;" data-final-font-size="69">
    <tspan x="960.0" dy="70.47px">Interpretations of the Kecksburg Cordon</tspan>
  </text>
  <rect id="TITLE_FRAME" x="134" y="25" width="1652" height="70" fill="none"/>
  <g id="DIAGRAM_MAIN">
    <rect id="ITEM_1_BG" x="485" y="170" width="480" height="410" rx="16" fill="var(--semantic-uncertain)" stroke="var(--accent-1)" stroke-width="2" filter="url(#svg248ba160-shadow)" fill-opacity="0.4"/>
    <rect x="485" y="170" width="480" height="410" rx="16" fill="url(#svg248ba160-card-panel-sheen)" opacity="0.88"/>
    <rect x="485" y="186" width="460" height="12" fill="var(--accent-1)"/>
    <rect id="ITEM_1_HEAD_FRAME" x="500" y="288" width="450" height="96" fill="none"/>
    <rect id="ITEM_1_BODY_FRAME" x="500" y="382" width="450" height="168" fill="none"/>
    <circle id="ITEM_1_PAD" cx="715" cy="231" r="55" fill="var(--icon-pad-bg)" stroke="var(--semantic-uncertain)" opacity="1" fill-opacity="0.9" stroke-width="2" stroke-opacity="0.72" data-badge-layer="pad"/>
    <circle cx="715" cy="231" r="44" fill="none" stroke="var(--accent-1)" stroke-width="3" stroke-dasharray="6 4" display="none" data-suppressed-decoration="redundant-badge-ring"/>
    <circle id="ITEM_1_BADGE" cx="715" cy="231" r="43" fill="var(--accent-1)" stroke="var(--background)" stroke-width="4" fill-opacity="0.35" opacity="0.85" stroke-opacity="0.75"/>
    <g id="ITEM_1_ICON" transform="translate(682, 198)" data-icon-size="66" stroke-linecap="round" stroke-linejoin="round" data-badge-treatment="clean">
      <g transform="translate(-13.505042016806721,-12.06302521008403) scale(0.18025210084033613)" vector-effect="non-scaling-stroke" fill="#ffffff" fill-opacity="1.0" stroke="none">
        <path fill="#ffffff" d="M384 50c-14.688 0-29.365 6.747-31.676 20.23c10.285-3.726 21.404-5.66 32.533-5.693c10.456-.03 20.915 1.62 30.696 5.01C412.873 56.517 398.44 50 384 50m.89 32.697c-10.248.03-20.532 1.925-29.447 5.617c-6.347 2.63-13.647 6.577-18.795 11.012S329 108.05 329 112v52.236l110-43.334V112c0-3.913-2.39-8.276-7.207-12.72c-4.818-4.44-11.67-8.425-17.688-11.012c-8.762-3.768-18.97-5.6-29.216-5.57zM494 118.582L83.895 280.14c-5.35 2.733-13.294 10.738-20.874 21.96c-7.634 11.304-15.202 25.66-21.79 40.543c-10.3 23.274-18.013 48.48-20.917 64.373c22.138-3.977 44.664-8.047 67.347-12.112l5.723-37.95c30.852-8.914 111.01-29.017 154.287-40.42l.28-.56l.634.317C345.567 290.76 409.75 278.177 494 268.315zm0 167.834c-25.687 3.027-49.473 6.31-72.91 10.152l-35.108 52.364c38.81-4.09 75.245-6.675 108.018-7.112zm-97.424 14.397c-41.764 7.628-84.273 17.402-136.435 31.033l-18.333 36.67c41.485-6.58 82.124-12.432 120.756-16.973zM236.94 337.99c-36.766 9.856-78.698 21.625-127.913 35.66l-2.672 17.922c37.804-6.734 75.923-13.384 113.56-19.53l17.026-34.052zm65.583 39.733a3496 3496 0 0 0-24.73 3.623L281 418h18zm-95.9 14.882a6526 6526 0 0 0-24.88 4.184L185 434h18zm-96.05 16.54c-8.267 1.467-16.535 2.932-24.762 4.402L89 450h18l3.574-40.854z" vector-effect="non-scaling-stroke" stroke="none"/>
      </g>
    </g>
    <text id="ITEM_1_HEAD" x="725.0" y="288.0" font-weight="700" font-size="26" fill="var(--primary-text)" text-anchor="middle" data-bg-id="ITEM_1_BG" fill-opacity="1.0" stroke="none" style="font-size: 31px; font-family: 'Segoe UI Variable Display', 'Aptos Display', 'Inter', 'Segoe UI', Helvetica, Arial, sans-serif; font-weight: 700; font-kerning: normal; font-feature-settings: &quot;kern&quot; 1, &quot;liga&quot; 1; letter-spacing:-0.4px;" data-final-font-size="31">
      <tspan x="725.0" dy="56.52px">Conventional View</tspan>
    </text>
    <text id="ITEM_1_BODY" x="725.0" y="382.0" font-size="21" fill="var(--primary-text)" text-anchor="middle" data-bg-id="ITEM_1_BG" style="font-size: 23px; font-family: 'Segoe UI Variable Text', 'Aptos', 'Inter', 'Segoe UI', Helvetica, Arial, sans-serif; font-weight: 400; font-kerning: normal; font-feature-settings: &quot;kern&quot; 1, &quot;liga&quot; 1;" data-final-font-size="23">
      <tspan x="725.0" dy="41.42px">Routine response to aircraft crash</tspan>
      <tspan x="725.0" dy="26.45px">or hazardous debris</tspan>
    </text>
    <rect id="ITEM_2_BG" x="975" y="170" width="480" height="410" rx="16" fill="var(--semantic-uncertain)" stroke="var(--accent-2)" stroke-width="2" filter="url(#svg248ba160-shadow)" fill-opacity="0.4"/>
    <rect x="975" y="170" width="480" height="410" rx="16" fill="url(#svg248ba160-card-panel-sheen)" opacity="0.88"/>
    <rect x="975" y="186" width="460" height="12" fill="var(--accent-2)"/>
    <rect id="ITEM_2_HEAD_FRAME" x="990" y="288" width="450" height="96" fill="none"/>
    <rect id="ITEM_2_BODY_FRAME" x="990" y="382" width="450" height="168" fill="none"/>
    <circle id="ITEM_2_PAD" cx="1205" cy="231" r="55" fill="var(--icon-pad-bg)" stroke="var(--semantic-uncertain)" opacity="1" fill-opacity="0.9" stroke-width="2" stroke-opacity="0.72" data-badge-layer="pad"/>
    <circle cx="1205" cy="231" r="44" fill="none" stroke="var(--accent-2)" stroke-width="3" stroke-dasharray="6 4" display="none" data-suppressed-decoration="redundant-badge-ring"/>
    <circle id="ITEM_2_BADGE" cx="1205" cy="231" r="43" fill="var(--accent-2)" stroke="var(--background)" stroke-width="4" fill-opacity="0.35" opacity="0.85" stroke-opacity="0.75"/>
    <g id="ITEM_2_ICON" transform="translate(1172, 198)" data-icon-size="66" stroke-linecap="round" stroke-linejoin="round" data-badge-treatment="clean">
      <g transform="translate(-13.535593220338981,-12.808474576271184) scale(0.18177966101694915)" vector-effect="non-scaling-stroke" fill="#ffffff" fill-opacity="1.0" stroke="none">
        <path fill="#ffffff" d="M247 16v89h9c14.9 0 23 11.7 23.8 23.6c.4 6-1.2 11.5-4.7 15.4c-3.5 4-9.1 7-19.1 7c-5 0-11.1-2.8-15.6-7.4c-4.6-4.5-7.4-10.6-7.4-15.6h-18c0 11 5.2 20.9 12.6 28.4c7.5 7.4 17.4 12.6 28.4 12.6c14 0 25.4-5 32.5-13c7.2-8.1 10-18.6 9.3-28.6c-1.2-17.5-13.4-35.18-32.8-39.42V16zm-47.9 140.5L61.34 247h32.7l114.86-75.5zm113.8 0l-9.8 15L418 247h32.6zM41 265v222h430V265zm38 23h18v176H79zm48 0h18v176h-18zm48 0h18v176h-18zm48 0h18v176h-18zm48 0h18v176h-18zm48 0h18v176h-18zm48 0h18v176h-18zm48 0h18v176h-18z" vector-effect="non-scaling-stroke" stroke="none"/>
      </g>
    </g>
    <text id="ITEM_2_HEAD" x="1215.0" y="288.0" font-weight="700" font-size="26" fill="var(--primary-text)" text-anchor="middle" data-bg-id="ITEM_2_BG" fill-opacity="1.0" stroke="none" style="font-size: 31px; font-family: 'Segoe UI Variable Display', 'Aptos Display', 'Inter', 'Segoe UI', Helvetica, Arial, sans-serif; font-weight: 700; font-kerning: normal; font-feature-settings: &quot;kern&quot; 1, &quot;liga&quot; 1; letter-spacing:-0.4px;" data-final-font-size="31">
      <tspan x="1215.0" dy="56.52px">Researcher View</tspan>
    </text>
    <text id="ITEM_2_BODY" x="1215.0" y="382.0" font-size="21" fill="var(--primary-text)" text-anchor="middle" data-bg-id="ITEM_2_BG" style="font-size: 23px; font-family: 'Segoe UI Variable Text', 'Aptos', 'Inter', 'Segoe UI', Helvetica, Arial, sans-serif; font-weight: 400; font-kerning: normal; font-feature-settings: &quot;kern&quot; 1, &quot;liga&quot; 1;" data-final-font-size="23">
      <tspan x="1215.0" dy="41.42px">Evidence of a secret recovery operation</tspan>
      <tspan x="1215.0" dy="26.45px">by authorities</tspan>
    </text>
    <rect id="ITEM_3_BG" x="485" y="600" width="480" height="410" rx="16" fill="var(--semantic-outcome)" stroke="var(--accent-3)" stroke-width="2" filter="url(#svg248ba160-shadow)" fill-opacity="0.4"/>
    <rect x="485" y="600" width="480" height="410" rx="16" fill="url(#svg248ba160-card-panel-sheen)" opacity="0.88"/>
    <rect x="485" y="616" width="460" height="12" fill="var(--accent-3)"/>
    <rect id="ITEM_3_HEAD_FRAME" x="500" y="718" width="450" height="96" fill="none"/>
    <rect id="ITEM_3_BODY_FRAME" x="500" y="812" width="450" height="168" fill="none"/>
    <circle id="ITEM_3_PAD" cx="715" cy="661" r="55" fill="var(--icon-pad-bg)" stroke="var(--semantic-outcome)" opacity="1" fill-opacity="0.9" stroke-width="2" stroke-opacity="0.72" data-badge-layer="pad"/>
    <circle cx="715" cy="661" r="44" fill="none" stroke="var(--accent-3)" stroke-width="3" stroke-dasharray="6 4" display="none" data-suppressed-decoration="redundant-badge-ring"/>
    <circle id="ITEM_3_BADGE" cx="715" cy="661" r="43" fill="var(--accent-3)" stroke="var(--background)" stroke-width="4" fill-opacity="0.35" opacity="0.85" stroke-opacity="0.75"/>
    <g id="ITEM_3_ICON" transform="translate(682, 628)" data-icon-size="66" stroke-linecap="round" stroke-linejoin="round" data-badge-treatment="clean">
      <g transform="translate(-13.566666666666665,-14.299999999999997) scale(0.18333333333333332)" vector-effect="non-scaling-stroke" fill="#ffffff" fill-opacity="1.0" stroke="none">
        <path fill="#ffffff" d="M283.406 26c-31.262-.124-67.23 14.174-87.406 24.813c-14.187 7.48-63.924 37.248-106.594 45.5c-55.05 10.643-86.878 63.63-54.594 90.156c53.676 44.1 55.533 101.236 15.844 143.186c-43.832 46.33 1.16 113.166 63.844 105.625s89.117.543 121.03 32.44c41.408 41.38 131.457 24.757 153.595-32.595c10.275-26.614 24.304-56.372 58.594-68.563c40.316-14.328 52.335-59.373 26.217-90.625c-19.376-23.183-21.61-47.184 4.875-95.468c21.756-39.664 4.657-83.827-55.937-80.44c-45.002 2.515-64.425-27.456-97.156-59.374C314.866 30.074 299.78 26.066 283.405 26zm-20.312 76.188c87.992 0 159.53 71.508 159.53 159.5c0 87.994-71.538 159.53-159.53 159.53s-159.53-71.536-159.53-159.53c0-87.995 71.538-159.5 159.53-159.5m0 18.687c-77.892 0-140.813 62.918-140.813 140.813s62.922 140.843 140.814 140.843c77.89 0 140.844-62.948 140.844-140.842c0-77.892-62.953-140.813-140.844-140.813zm-9.344 19.188h18.688v12.562l32.218 9.78l-32 9.72h-.78v97.47H253.75V172.53l-33.344-10.124l33.344-10.125zm-51.875 40.343c9.892-.023 20.71 2.28 32.313 7.156v20.594c-14.94-7.682-27.267-9.843-36.657-8.844c-11.21 1.194-18.696 6.513-23.468 14.125c-9.34 14.902-7.106 39.607 13.907 56.157h-25.657c-14.936-20.91-15.937-47.15-4.063-66.094c7.603-12.13 20.8-20.992 37.313-22.75c2.064-.22 4.16-.34 6.312-.344m122.438 0c2.153.005 4.28.124 6.343.344c16.513 1.758 29.71 10.62 37.313 22.75c11.872 18.944 10.872 45.183-4.064 66.094H338.22c21.01-16.55 23.245-41.255 13.905-56.156c-4.77-7.613-12.258-12.932-23.47-14.125c-9.69-1.032-22.498 1.294-38.092 9.593v-20.75c12.145-5.308 23.443-7.774 33.75-7.75m-71.438 16.875q.078.049.156.095l-.155.25v-.344zm-81.563 91h183.563v18.44h-34.28v17.81h34.28v18.69H171.312v-18.69h36.47v-17.81h-36.47zm55.157 18.44v17.81h27.28v-17.81zm45.968 0v17.81h29.468v-17.81h-29.47zm-9.157 50.03c7.64 0 13.845 6.204 13.845 13.844s-6.204 13.844-13.844 13.844s-13.842-6.204-13.842-13.844s6.203-13.844 13.843-13.844zM457 410.5c-7.208.234-14.82 2.62-21.5 7.688c-34.04 25.825-9.88 74.987 31.938 40.437c32.292-26.678 13.11-48.89-10.438-48.125" vector-effect="non-scaling-stroke" stroke="none"/>
      </g>
    </g>
    <text id="ITEM_3_HEAD" x="725.0" y="718.0" font-weight="700" font-size="26" fill="var(--primary-text)" text-anchor="middle" data-bg-id="ITEM_3_BG" fill-opacity="1.0" stroke="none" style="font-size: 31px; font-family: 'Segoe UI Variable Display', 'Aptos Display', 'Inter', 'Segoe UI', Helvetica, Arial, sans-serif; font-weight: 700; font-kerning: normal; font-feature-settings: &quot;kern&quot; 1, &quot;liga&quot; 1; letter-spacing:-0.4px;" data-final-font-size="31">
      <tspan x="725.0" dy="56.52px">Official Conclusion</tspan>
    </text>
    <text id="ITEM_3_BODY" x="725.0" y="812.0" font-size="21" fill="var(--primary-text)" text-anchor="middle" data-bg-id="ITEM_3_BG" style="font-size: 23px; font-family: 'Segoe UI Variable Text', 'Aptos', 'Inter', 'Segoe UI', Helvetica, Arial, sans-serif; font-weight: 400; font-kerning: normal; font-feature-settings: &quot;kern&quot; 1, &quot;liga&quot; 1;" data-final-font-size="23">
      <tspan x="725.0" dy="41.42px">Public statement claimed no object was</tspan>
      <tspan x="725.0" dy="26.45px">ever recovered</tspan>
    </text>
    <rect id="ITEM_4_BG" x="975" y="600" width="480" height="410" rx="16" fill="var(--semantic-evidence)" stroke="var(--accent-4)" stroke-width="2" filter="url(#svg248ba160-shadow)" fill-opacity="0.4"/>
    <rect x="975" y="600" width="480" height="410" rx="16" fill="url(#svg248ba160-card-panel-sheen)" opacity="0.88"/>
    <rect x="975" y="616" width="460" height="12" fill="var(--accent-4)"/>
    <rect id="ITEM_4_HEAD_FRAME" x="990" y="718" width="450" height="96" fill="none"/>
    <rect id="ITEM_4_BODY_FRAME" x="990" y="812" width="450" height="168" fill="none"/>
    <circle id="ITEM_4_PAD" cx="1205" cy="661" r="55" fill="var(--icon-pad-bg)" stroke="var(--semantic-evidence)" opacity="1" fill-opacity="0.9" stroke-width="2" stroke-opacity="0.72" data-badge-layer="pad"/>
    <circle cx="1205" cy="661" r="44" fill="none" stroke="var(--accent-4)" stroke-width="3" stroke-dasharray="6 4" display="none" data-suppressed-decoration="redundant-badge-ring"/>
    <circle id="ITEM_4_BADGE" cx="1205" cy="661" r="43" fill="var(--accent-4)" stroke="var(--background)" stroke-width="4" fill-opacity="0.35" opacity="0.85" stroke-opacity="0.75"/>
    <g id="ITEM_4_ICON" transform="translate(1172, 628)" data-icon-size="66" stroke-linecap="round" stroke-linejoin="round" data-badge-treatment="clean">
      <g transform="translate(-13.535593220338978,-13.535593220338981) scale(3.877966101694915)" vector-effect="non-scaling-stroke" stroke-width="2.50" stroke-linecap="round" stroke-linejoin="round" stroke-opacity="1.0">
        <path d="M15 2H6a2 2 0 0 0-2 2v16a2 2 0 0 0 2 2h12a2 2 0 0 0 2-2V7Z" vector-effect="non-scaling-stroke" fill="none" stroke="#ffffff"/>
        <path d="M14 2v4a2 2 0 0 0 2 2h4" vector-effect="non-scaling-stroke" fill="none" stroke="#ffffff"/>
      </g>
    </g>
    <text id="ITEM_4_HEAD" x="1215.0" y="718.0" font-weight="700" font-size="26" fill="var(--primary-text)" text-anchor="middle" data-bg-id="ITEM_4_BG" fill-opacity="1.0" stroke="none" style="font-size: 31px; font-family: 'Segoe UI Variable Display', 'Aptos Display', 'Inter', 'Segoe UI', Helvetica, Arial, sans-serif; font-weight: 700; font-kerning: normal; font-feature-settings: &quot;kern&quot; 1, &quot;liga&quot; 1; letter-spacing:-0.4px;" data-final-font-size="31">
      <tspan x="1215.0" dy="56.52px">Documentary Record</tspan>
    </text>
    <text id="ITEM_4_BODY" x="1215.0" y="812.0" font-size="21" fill="var(--primary-text)" text-anchor="middle" data-bg-id="ITEM_4_BG" style="font-size: 23px; font-family: 'Segoe UI Variable Text', 'Aptos', 'Inter', 'Segoe UI', Helvetica, Arial, sans-serif; font-weight: 400; font-kerning: normal; font-feature-settings: &quot;kern&quot; 1, &quot;liga&quot; 1;" data-final-font-size="23">
      <tspan x="1215.0" dy="41.42px">Confirms perimeter existence but leaves</tspan>
      <tspan x="1215.0" dy="26.45px">purpose ambiguous</tspan>
    </text>
  </g>
  <text id="SOURCE_NOTE" x="134.0" y="1058.0" fill="var(--muted-text)" opacity="1" style="font-family: var(--font-family); font-size: 20px;">Source: Kecksburg UFO incident</text>
  <text id="EDITORIAL_NOTE" x="1786.0" y="1058.0" fill="var(--semantic-uncertain)" opacity="1" style="font-family: var(--font-family); font-size: 20px;" text-anchor="end">Interpretations remain disputed; wording reflects source uncertainty.</text>
</svg>
