<?xml version='1.0' encoding='utf-8'?>
<svg xmlns="http://www.w3.org/2000/svg" width="1920" height="1080" viewBox="0 0 1920 1080" data-theme="dark" data-semantic-intent="sequence" data-relation-type="sequence" data-site-visual-identity="signal-cobalt">
  <style>
        @font-face {
            font-family: 'Inter';
            src: url('assets/fonts/Inter-Regular.ttf') format('truetype');
            font-weight: 400;
            font-style: normal;
            font-display: swap;
        }
        @font-face {
            font-family: 'Inter';
            src: url('assets/fonts/Inter-Bold.ttf') format('truetype');
            font-weight: 600;
            font-style: normal;
            font-display: swap;
        }
        @font-face {
            font-family: 'Inter';
            src: url('assets/fonts/Inter-Bold.ttf') format('truetype');
            font-weight: 800;
            font-style: normal;
            font-display: swap;
        }
        
:root {
    --background: #0f172a;
    --panel: #1e293b;
    --primary-text: #f1f5f9;
    --muted-text: #94a3b8;
    --inverse-text: #0f172a;
    --border: #334155;
    --shadow-color: #000000;
    --icon-pad-bg: #1e293b;
    --art-glow: #7dd3fc;
    --art-glow-opacity: 0.18;
    --art-sheen: #ffffff;
    --art-sheen-opacity: 0.18;
    --art-shadow: #000000;
    --art-shadow-opacity: 0.28;
    --art-muted-line: #64748b;
    --art-panel-tint: #1e293b;
    --semantic-risk: #f87171;
    --semantic-warning: #fb923c;
    --semantic-uncertain: #fbbf24;
    --semantic-evidence: #60a5fa;
    --semantic-claim: #c084fc;
    --semantic-positive: #4ade80;
    --semantic-outcome: #22d3ee;
    --font-family: 'Inter', 'Segoe UI', 'Kalam', Roboto, Helvetica, Arial, sans-serif;
    --radius-xl: 16px;
    --font-family-headline: 'Segoe UI Variable Display', 'Aptos Display', 'Inter', 'Segoe UI', Helvetica, Arial, sans-serif;
    --font-family-body: 'Segoe UI Variable Text', 'Aptos', 'Inter', 'Segoe UI', Helvetica, Arial, sans-serif;
    --font-heading: var(--font-family-headline);
    --font-body: var(--font-family-body);
    --font-size-h1: 64px;
    --font-size-h2: 42px;
    --font-size-h3: 29px;
    --font-size-body: 21px;
    --font-size-caption: 17px;
    --secondary-text: var(--muted-text);
    --panel-border: var(--border);
    --font-weight-normal: 400;
    --font-weight-medium: 500;
    --font-weight-semibold: 600;
    --font-weight-bold: 700;
    --spacing-gutter-pct: 0.07;
    --spacing-top-pct: 0.15;
    --spacing-bottom-pct: 0.07;
    --spacing-title-y-pct: 0.055;
    --accent-1: #93c5fd;
    --accent-2: #60a5fa;
    --accent-3: #818cf8;
    --accent-4: #a78bfa;
    --accent-5: #38bdf8;
    --accent-6: #fb923c;
}
:root[data-theme="dark"] {
    --background: #0f172a;
    --panel: #1e293b;
    --primary-text: #f1f5f9;
    --muted-text: #94a3b8;
    --inverse-text: #0f172a;
    --border: #334155;
    --shadow-color: #000000;
    --icon-pad-bg: #1e293b;
    --art-glow: #7dd3fc;
    --art-glow-opacity: 0.18;
    --art-sheen: #ffffff;
    --art-sheen-opacity: 0.18;
    --art-shadow: #000000;
    --art-shadow-opacity: 0.28;
    --art-muted-line: #64748b;
    --art-panel-tint: #1e293b;
    --semantic-risk: #f87171;
    --semantic-warning: #fb923c;
    --semantic-uncertain: #fbbf24;
    --semantic-evidence: #60a5fa;
    --semantic-claim: #c084fc;
    --semantic-positive: #4ade80;
    --semantic-outcome: #22d3ee;
    --accent-1: #93c5fd;
    --accent-2: #60a5fa;
    --accent-3: #818cf8;
    --accent-4: #a78bfa;
    --accent-5: #38bdf8;
    --accent-6: #fb923c;
}
:root[data-theme="light"] {
    --background: #f8fafc;
    --panel: #ffffff;
    --primary-text: #0f172a;
    --muted-text: #64748b;
    --inverse-text: #ffffff;
    --border: #e2e8f0;
    --shadow-color: #000000;
    --icon-pad-bg: #1e293b;
    --art-glow: #0891b2;
    --art-glow-opacity: 0.10;
    --art-sheen: #ffffff;
    --art-sheen-opacity: 0.34;
    --art-shadow: #0f172a;
    --art-shadow-opacity: 0.14;
    --art-muted-line: #94a3b8;
    --art-panel-tint: #f1f5f9;
    --semantic-risk: #b91c1c;
    --semantic-warning: #c2410c;
    --semantic-uncertain: #a16207;
    --semantic-evidence: #1d4ed8;
    --semantic-claim: #6d28d9;
    --semantic-positive: #15803d;
    --semantic-outcome: #0e7490;
    --accent-1: #1d4ed8;
    --accent-2: #2563eb;
    --accent-3: #4f46e5;
    --accent-4: #6d28d9;
    --accent-5: #0369a1;
    --accent-6: #c2410c;
}</style>
  <rect x="0" y="0" width="1.92E+3" height="1.08E+3" fill="#0f172a" stroke="none" id="programmatic_background"/>
  <line id="HEADER_DECOR" x1="960.0" x2="1080.0" y1="135.0" y2="135.0" stroke="var(--accent-1)" stroke-width="6" stroke-linecap="round"/>
  <defs>
    <pattern id="svg1a454ac2-napkin-hatch" patternUnits="userSpaceOnUse" width="12" height="12">
      <path d="M -3 12 L 12 -3 M 0 15 L 15 0" fill="none" stroke="var(--primary-text)" stroke-width="1" stroke-opacity="0.05"/>
    </pattern>
    <filter id="svg1a454ac2-shadow" x="-30%" y="-30%" width="160%" height="160%">
      <feDropShadow dx="0" dy="2" stdDeviation="3" flood-color="#000000" flood-opacity="0.08"/>
      <feDropShadow dx="0" dy="6" stdDeviation="10" flood-color="#000000" flood-opacity="0.12"/>
    </filter>
    <radialGradient id="svg1a454ac2-universal-edge-vignette" cx="50%" cy="50%" r="72%">
      <stop offset="0%" stop-color="var(--background)" stop-opacity="0"/>
      <stop offset="72%" stop-color="var(--background)" stop-opacity="0.12"/>
      <stop offset="100%" stop-color="var(--primary-text)" stop-opacity="0.08"/>
    </radialGradient>
    <linearGradient id="svg1a454ac2-universal-surface-sheen" x1="0%" y1="0%" x2="100%" y2="100%">
      <stop offset="0%" stop-color="var(--art-sheen)" stop-opacity="var(--art-sheen-opacity)"/>
      <stop offset="46%" stop-color="var(--art-sheen)" stop-opacity="0.035"/>
      <stop offset="100%" stop-color="var(--art-panel-tint)" stop-opacity="0.14"/>
    </linearGradient>
    <radialGradient id="svg1a454ac2-universal-icon-aura" cx="50%" cy="42%" r="64%">
      <stop offset="0%" stop-color="var(--art-glow)" stop-opacity="var(--art-glow-opacity)"/>
      <stop offset="100%" stop-color="var(--background)" stop-opacity="0"/>
    </radialGradient>
    <filter id="svg1a454ac2-text-glow" x="-20%" y="-20%" width="140%" height="140%">
      <feDropShadow dx="0" dy="0" stdDeviation="2" flood-color="#000000" flood-opacity="0.4"/>
    </filter>
    <marker id="svg1a454ac2-arrowhead" markerWidth="10" markerHeight="7" refX="9" refY="3.5" orient="auto" markerUnits="strokeWidth">
      <polygon points="0 0, 10 3.5, 0 7" fill="var(--muted-text)" opacity="0.6"/>
    </marker>
    <marker id="svg1a454ac2-PHX_SEQUENCE_DIRECTION_ARROW" markerWidth="18" markerHeight="18" refX="16" refY="9" orient="auto" markerUnits="userSpaceOnUse">
      <path d="M 0 0 L 18 9 L 0 18 Z" fill="var(--muted-text)" opacity="0.9"/>
    </marker>
  </defs>
  <rect width="100%" height="100%" fill="var(--background)" id="CANVAS_BG"/>
  <rect width="100%" height="100%" fill="url(#svg1a454ac2-napkin-hatch)"/>
  <rect id="UNIVERSAL_EDGE_VIGNETTE" width="100%" height="100%" fill="url(#svg1a454ac2-universal-edge-vignette)" opacity="0.62"/>
  <text id="TITLE" x="960.0" y="59" text-anchor="middle" font-size="63" font-weight="700" fill="#f1f5f9" style="font-size: 69px; font-family: 'Segoe UI Variable Display', 'Aptos Display', 'Inter', 'Segoe UI', Helvetica, Arial, sans-serif; font-weight: 800; font-kerning: normal; font-feature-settings: &quot;kern&quot; 1, &quot;liga&quot; 1; letter-spacing:-1.2px;" data-final-font-size="69">
    <tspan x="960.0" dy="70.47px">Seismic Evidence Requirements for Kecksburg</tspan>
  </text>
  <rect id="TITLE_FRAME" x="134" y="59" width="1652" height="103" fill="none"/>
  <g id="DIAGRAM_SCALER">
    <line x1="960" y1="210" x2="960" y2="940" stroke="var(--border)" stroke-width="20" stroke-linecap="round" opacity="0.1" marker-end="url(#svg1a454ac2-PHX_SEQUENCE_DIRECTION_ARROW)" data-direction-cue="forward"/>
    <line x1="960" y1="210" x2="960" y2="940" stroke="var(--muted-text)" stroke-width="7" stroke-linecap="round" opacity="0.48"/>
    <circle cx="960" cy="210" r="10" fill="var(--border)" opacity="0.35"/>
    <path d="M 960 972 L 980 940 L 940 940 Z" fill="var(--muted-text)" opacity="0.5"/>
    <g transform="translate(960, 260)">
      <circle cx="0" cy="0" r="18" fill="var(--panel)" stroke="var(--border)" stroke-width="4"/>
      <circle cx="0" cy="0" r="7" fill="var(--accent-1)"/>
      <line x1="0" y1="0" x2="220" y2="0" stroke="var(--accent-1)" stroke-width="16" stroke-linecap="round" opacity="0.18"/>
      <line x1="0" y1="0" x2="220" y2="0" stroke="var(--accent-1)" stroke-width="4" stroke-linecap="round"/>
      <circle cx="220" cy="0" r="72" fill="var(--accent-1)" opacity="0.14"/>
      <circle id="ITEM_1_NODE" cx="220" cy="0" r="56" fill="var(--panel)" stroke="var(--accent-1)" stroke-width="2" stroke-opacity="0.58" data-badge-layer="outline"/>
      <circle id="ITEM_1_PAD" cx="220" cy="0" r="50" fill="var(--icon-pad-bg)" stroke="var(--accent-1)" opacity="1" fill-opacity="0.9" stroke-width="2" stroke-opacity="0.72" data-badge-layer="pad"/>
      <circle id="ITEM_1_PAD_INNER" cx="220" cy="0" r="39.00" fill="var(--accent-1)" fill-opacity="0.12" stroke="none" data-badge-layer="tint"/>
      <circle cx="220" cy="0" r="40" fill="none" stroke="var(--accent-1)" stroke-width="3" stroke-dasharray="6 4" display="none" data-suppressed-decoration="redundant-badge-ring"/>
      <g id="ITEM_1_ICON" transform="translate(188, -32)" data-icon-size="64" stroke-linecap="round" stroke-linejoin="round" data-badge-treatment="clean">
        <g transform="translate(-16.0,-16.0) scale(3.0)" vector-effect="non-scaling-stroke" fill="#f1f5f9" fill-opacity="1.0" stroke="none">
          <path fill="#f1f5f9" d="M4 5v22c0 1.1.9 2 2 2h4v-2H6V5h4V3H6c-1.1 0-2 .9-2 2m22-2h-4v2h4v22h-4v2h4c1.1 0 2-.9 2-2V5c0-1.1-.9-2-2-2" vector-effect="non-scaling-stroke" stroke="none"/>
        </g>
      </g>
      <g transform="translate(332, 0)">
        <path id="ITEM_1_TEXT_BG" d="M -26 -50 L 378 -50 L 420 -10 L 420 148 L 34 148 L -50 86 L -50 18 Z" fill="var(--panel)" fill-opacity="0.96" stroke="var(--primary-text)" stroke-opacity="0.12" stroke-width="1.5" filter="url(#svg1a454ac2-shadow)"/>
        <rect x="392" y="-30" width="10" height="110" rx="5" fill="var(--accent-1)" opacity="0.7"/>
        <line x1="24" y1="10" x2="354" y2="10" stroke="var(--accent-1)" stroke-width="3" opacity="0.3"/>
        <text id="ITEM_1_HEAD" data-bg-id="ITEM_1_TEXT_BG" font-weight="700" font-size="32" fill="var(--accent-1)" x="24.0" y="-30.0" fill-opacity="1.0" stroke="none" style="font-size: 31px; font-family: 'Segoe UI Variable Display', 'Aptos Display', 'Inter', 'Segoe UI', Helvetica, Arial, sans-serif; font-weight: 700; font-kerning: normal; font-feature-settings: &quot;kern&quot; 1, &quot;liga&quot; 1; letter-spacing:-0.4px;" data-final-font-size="31">
          <tspan x="24.0" dy="26.52px">Network Deployment</tspan>
        </text>
        <rect id="ITEM_1_HEAD_FRAME" x="24" y="-30" width="338" height="36" fill="none"/>
        <text id="ITEM_1_BODY" data-bg-id="ITEM_1_TEXT_BG" font-size="22" fill="var(--primary-text)" opacity="0.92" x="24.0" y="24.0" style="font-size: 23px; font-family: 'Segoe UI Variable Text', 'Aptos', 'Inter', 'Segoe UI', Helvetica, Arial, sans-serif; font-weight: 400; font-kerning: normal; font-feature-settings: &quot;kern&quot; 1, &quot;liga&quot; 1;" data-final-font-size="23">
          <tspan x="24.0" dy="23.42px">Deploy contemporaneous stations</tspan>
          <tspan x="24.0" dy="26.45px">to record the same event</tspan>
        </text>
        <rect id="ITEM_1_BODY_FRAME" x="24" y="24" width="356" height="78" fill="none"/>
      </g>
    </g>
    <g transform="translate(960, 440)">
      <circle cx="0" cy="0" r="18" fill="var(--panel)" stroke="var(--border)" stroke-width="4"/>
      <circle cx="0" cy="0" r="7" fill="var(--accent-2)"/>
      <line x1="0" y1="0" x2="-220" y2="0" stroke="var(--accent-2)" stroke-width="16" stroke-linecap="round" opacity="0.18"/>
      <line x1="0" y1="0" x2="-220" y2="0" stroke="var(--accent-2)" stroke-width="4" stroke-linecap="round"/>
      <circle cx="-220" cy="0" r="72" fill="var(--accent-2)" opacity="0.14"/>
      <circle id="ITEM_2_NODE" cx="-220" cy="0" r="56" fill="var(--panel)" stroke="var(--accent-2)" stroke-width="2" stroke-opacity="0.58" data-badge-layer="outline"/>
      <circle id="ITEM_2_PAD" cx="-220" cy="0" r="50" fill="var(--icon-pad-bg)" stroke="var(--accent-2)" opacity="1" fill-opacity="0.9" stroke-width="2" stroke-opacity="0.72" data-badge-layer="pad"/>
      <circle id="ITEM_2_PAD_INNER" cx="-220" cy="0" r="39.00" fill="var(--accent-2)" fill-opacity="0.12" stroke="none" data-badge-layer="tint"/>
      <circle cx="-220" cy="0" r="40" fill="none" stroke="var(--accent-2)" stroke-width="3" stroke-dasharray="6 4" display="none" data-suppressed-decoration="redundant-badge-ring"/>
      <g id="ITEM_2_ICON" transform="translate(-252, -32)" data-icon-size="64" stroke-linecap="round" stroke-linejoin="round" data-badge-treatment="clean">
        <g transform="translate(-12.919642857142854,-12.571428571428571) scale(2.7857142857142856)">
          <path d="M18.015 6L16.015 5L14.015 6V9H18.015V6ZM10.645 11.19L8.195 13.64C7.695 14.14 6.895 14.14 6.405 13.64L5.375 12.61C4.875 12.11 4.875 11.31 5.375 10.82L7.825 8.37C8.325 7.87 9.125 7.87 9.615 8.37L10.655 9.41C11.145 9.89 11.145 10.7 10.645 11.19ZM23.825 13.64L21.375 11.19C20.875 10.7 20.875 9.88999 21.375 9.39999L22.415 8.35999C22.905 7.85999 23.705 7.85999 24.205 8.35999L26.655 10.81C27.155 11.3 27.155 12.1 26.655 12.6L25.615 13.64C25.125 14.14 24.325 14.14 23.825 13.64Z" fill="#D3D3D3"/>
          <path d="M13.275 6H18.745C19.445 6 20.015 5.43 20.005 4.73V3.27C20.005 2.57 19.435 2 18.735 2H13.275C12.575 2 12.015 2.57 12.005 3.27V4.73C12.005 5.43 12.575 6 13.275 6ZM27.015 19C27.015 25.0751 22.0901 30 16.015 30C9.93988 30 5.01501 25.0751 5.01501 19C5.01501 12.9249 9.93988 8 16.015 8C22.0901 8 27.015 12.9249 27.015 19Z" fill="#636363"/>
          <path d="M16.015 28C20.9856 28 25.015 23.9706 25.015 19C25.015 14.0294 20.9856 10 16.015 10C11.0445 10 7.01501 14.0294 7.01501 19C7.01501 23.9706 11.0445 28 16.015 28Z" fill="white"/>
          <path d="M19.545 14.0499L20.255 13.3399C20.645 12.9499 21.275 12.9499 21.665 13.3399C22.055 13.7299 22.055 14.3599 21.665 14.7499L20.955 15.4599C20.565 15.8499 19.935 15.8499 19.545 15.4599C19.155 15.0799 19.155 14.4399 19.545 14.0499Z" fill="#9B9B9B"/>
          <path d="M15.015 13V12C15.015 11.45 15.465 11 16.015 11C16.565 11 17.015 11.45 17.015 12V13C17.015 13.55 16.565 14 16.015 14C15.455 14 15.015 13.55 15.015 13ZM15.015 26V25C15.015 24.45 15.465 24 16.015 24C16.565 24 17.015 24.45 17.015 25V26C17.015 26.55 16.565 27 16.015 27C15.455 27 15.015 26.55 15.015 26ZM23.015 18H22.015C21.455 18 21.015 18.45 21.015 19C21.015 19.55 21.465 20 22.015 20H23.015C23.565 20 24.015 19.55 24.015 19C24.015 18.45 23.565 18 23.015 18ZM9.01501 18H10.015C10.565 18 11.015 18.45 11.015 19C11.015 19.55 10.565 20 10.015 20H9.01501C8.46501 20 8.01501 19.55 8.01501 19C8.01501 18.45 8.45501 18 9.01501 18ZM21.675 23.2501L20.965 22.5401C20.565 22.1501 19.935 22.1501 19.555 22.5401C19.165 22.9301 19.165 23.5601 19.555 23.9501L20.265 24.6601C20.655 25.0501 21.285 25.0501 21.675 24.6601C22.065 24.2701 22.065 23.6401 21.675 23.2501ZM11.765 13.35L12.475 14.06C12.865 14.45 12.865 15.08 12.475 15.47C12.085 15.86 11.455 15.86 11.065 15.47L10.355 14.76C9.965 14.37 9.965 13.74 10.355 13.35C10.745 12.95 11.375 12.95 11.765 13.35ZM11.065 22.53L10.355 23.24C9.965 23.64 9.965 24.27 10.355 24.65C10.745 25.04 11.375 25.04 11.765 24.65L12.475 23.94C12.865 23.55 12.865 22.92 12.475 22.53C12.085 22.14 11.455 22.14 11.065 22.53Z" fill="#D3D3D3"/>
          <path d="M15.305 19.7101C14.915 19.3201 14.915 18.6901 15.305 18.3001L20.255 13.3501C20.645 12.9601 21.275 12.9601 21.665 13.3501C22.055 13.7401 22.055 14.3701 21.665 14.7601L16.715 19.7101C16.325 20.1001 15.695 20.1001 15.305 19.7101Z" fill="#F8312F"/>
        </g>
      </g>
      <g transform="translate(-332, 0)">
        <path id="ITEM_2_TEXT_BG" d="M 26 -50 L -378 -50 L -420 -10 L -420 148 L -34 148 L 50 86 L 50 18 Z" fill="var(--panel)" fill-opacity="0.96" stroke="var(--primary-text)" stroke-opacity="0.12" stroke-width="1.5" filter="url(#svg1a454ac2-shadow)"/>
        <rect x="-402" y="-30" width="10" height="110" rx="5" fill="var(--accent-2)" opacity="0.7"/>
        <line x1="-24" y1="10" x2="-354" y2="10" stroke="var(--accent-2)" stroke-width="3" opacity="0.3"/>
        <text id="ITEM_2_HEAD" data-bg-id="ITEM_2_TEXT_BG" text-anchor="end" font-weight="700" font-size="32" fill="var(--accent-2)" x="-24.0" y="-30.0" fill-opacity="1.0" stroke="none" style="font-size: 31px; font-family: 'Segoe UI Variable Display', 'Aptos Display', 'Inter', 'Segoe UI', Helvetica, Arial, sans-serif; font-weight: 700; font-kerning: normal; font-feature-settings: &quot;kern&quot; 1, &quot;liga&quot; 1; letter-spacing:-0.4px;" data-final-font-size="31">
          <tspan x="-24.0" dy="26.52px">Timing Analysis</tspan>
        </text>
        <rect id="ITEM_2_HEAD_FRAME" x="-362" y="-30" width="338" height="36" fill="none"/>
        <text id="ITEM_2_BODY" data-bg-id="ITEM_2_TEXT_BG" text-anchor="end" font-size="22" fill="var(--primary-text)" opacity="0.92" x="-24.0" y="24.0" style="font-size: 22px; font-family: 'Segoe UI Variable Text', 'Aptos', 'Inter', 'Segoe UI', Helvetica, Arial, sans-serif; font-weight: 400; font-kerning: normal; font-feature-settings: &quot;kern&quot; 1, &quot;liga&quot; 1;" data-final-font-size="22">
          <tspan x="-24.0" dy="18.02px">Calculate consistent arrival</tspan>
          <tspan x="-24.0" dy="25.30px">times to triangulate</tspan>
          <tspan x="-24.0" dy="25.30px">a single source</tspan>
        </text>
        <rect id="ITEM_2_BODY_FRAME" x="-380" y="24" width="356" height="78" fill="none"/>
      </g>
    </g>
    <g transform="translate(960, 620)">
      <circle cx="0" cy="0" r="18" fill="var(--panel)" stroke="var(--border)" stroke-width="4"/>
      <circle cx="0" cy="0" r="7" fill="var(--accent-3)"/>
      <line x1="0" y1="0" x2="220" y2="0" stroke="var(--accent-3)" stroke-width="16" stroke-linecap="round" opacity="0.18"/>
      <line x1="0" y1="0" x2="220" y2="0" stroke="var(--accent-3)" stroke-width="4" stroke-linecap="round"/>
      <circle cx="220" cy="0" r="72" fill="var(--accent-3)" opacity="0.14"/>
      <circle id="ITEM_3_NODE" cx="220" cy="0" r="56" fill="var(--panel)" stroke="var(--accent-3)" stroke-width="2" stroke-opacity="0.58" data-badge-layer="outline"/>
      <circle id="ITEM_3_PAD" cx="220" cy="0" r="50" fill="var(--icon-pad-bg)" stroke="var(--accent-3)" opacity="1" fill-opacity="0.9" stroke-width="2" stroke-opacity="0.72" data-badge-layer="pad"/>
      <circle id="ITEM_3_PAD_INNER" cx="220" cy="0" r="39.00" fill="var(--accent-3)" fill-opacity="0.12" stroke="none" data-badge-layer="tint"/>
      <circle cx="220" cy="0" r="40" fill="none" stroke="var(--accent-3)" stroke-width="3" stroke-dasharray="6 4" display="none" data-suppressed-decoration="redundant-badge-ring"/>
      <g id="ITEM_3_ICON" transform="translate(188, -32)" data-icon-size="64" stroke-linecap="round" stroke-linejoin="round" data-badge-treatment="clean">
        <g transform="translate(-10.305084745762713,-10.305084745762711) scale(3.5254237288135593)" vector-effect="non-scaling-stroke" stroke-width="2.48" stroke-linecap="round" stroke-linejoin="round" stroke-opacity="1.0">
          <rect width="20" height="14" x="2" y="3" rx="2" vector-effect="non-scaling-stroke" fill="none" stroke="#f1f5f9"/>
          <line x1="8" x2="16" y1="21" y2="21" vector-effect="non-scaling-stroke" fill="none" stroke="#f1f5f9"/>
          <line x1="12" x2="12" y1="17" y2="21" vector-effect="non-scaling-stroke" fill="none" stroke="#f1f5f9"/>
        </g>
      </g>
      <g transform="translate(332, 0)">
        <path id="ITEM_3_TEXT_BG" d="M -26 -50 L 378 -50 L 420 -10 L 420 148 L 34 148 L -50 86 L -50 18 Z" fill="var(--panel)" fill-opacity="0.96" stroke="var(--primary-text)" stroke-opacity="0.12" stroke-width="1.5" filter="url(#svg1a454ac2-shadow)"/>
        <rect x="392" y="-30" width="10" height="110" rx="5" fill="var(--accent-3)" opacity="0.7"/>
        <line x1="24" y1="10" x2="354" y2="10" stroke="var(--accent-3)" stroke-width="3" opacity="0.3"/>
        <text id="ITEM_3_HEAD" data-bg-id="ITEM_3_TEXT_BG" font-weight="700" font-size="32" fill="var(--accent-3)" x="24.0" y="-30.0" fill-opacity="1.0" stroke="none" style="font-size: 31px; font-family: 'Segoe UI Variable Display', 'Aptos Display', 'Inter', 'Segoe UI', Helvetica, Arial, sans-serif; font-weight: 700; font-kerning: normal; font-feature-settings: &quot;kern&quot; 1, &quot;liga&quot; 1; letter-spacing:-0.4px;" data-final-font-size="31">
          <tspan x="24.0" dy="26.52px">Waveform Matching</tspan>
        </text>
        <rect id="ITEM_3_HEAD_FRAME" x="24" y="-30" width="338" height="36" fill="none"/>
        <text id="ITEM_3_BODY" data-bg-id="ITEM_3_TEXT_BG" font-size="22" fill="var(--primary-text)" opacity="0.92" x="24.0" y="24.0" style="font-size: 23px; font-family: 'Segoe UI Variable Text', 'Aptos', 'Inter', 'Segoe UI', Helvetica, Arial, sans-serif; font-weight: 400; font-kerning: normal; font-feature-settings: &quot;kern&quot; 1, &quot;liga&quot; 1;" data-final-font-size="23">
          <tspan x="24.0" dy="23.42px">Identify P and S waves from a</tspan>
          <tspan x="24.0" dy="26.45px">shallow surface impact</tspan>
        </text>
        <rect id="ITEM_3_BODY_FRAME" x="24" y="24" width="356" height="78" fill="none"/>
      </g>
    </g>
    <g transform="translate(960, 800)">
      <circle cx="0" cy="0" r="18" fill="var(--panel)" stroke="var(--border)" stroke-width="4"/>
      <circle cx="0" cy="0" r="7" fill="var(--accent-4)"/>
      <line x1="0" y1="0" x2="-220" y2="0" stroke="var(--accent-4)" stroke-width="16" stroke-linecap="round" opacity="0.18"/>
      <line x1="0" y1="0" x2="-220" y2="0" stroke="var(--accent-4)" stroke-width="4" stroke-linecap="round"/>
      <circle cx="-220" cy="0" r="72" fill="var(--accent-4)" opacity="0.14"/>
      <circle id="ITEM_4_NODE" cx="-220" cy="0" r="56" fill="var(--panel)" stroke="var(--accent-1)" stroke-width="2" stroke-opacity="0.58" data-badge-layer="outline"/>
      <circle id="ITEM_4_PAD" cx="-220" cy="0" r="50" fill="var(--icon-pad-bg)" stroke="var(--accent-1)" opacity="1" fill-opacity="0.9" stroke-width="2" stroke-opacity="0.72" data-badge-layer="pad"/>
      <circle id="ITEM_4_PAD_INNER" cx="-220" cy="0" r="39.00" fill="var(--accent-1)" fill-opacity="0.12" stroke="none" data-badge-layer="tint"/>
      <circle cx="-220" cy="0" r="40" fill="none" stroke="var(--accent-4)" stroke-width="3" stroke-dasharray="6 4" display="none" data-suppressed-decoration="redundant-badge-ring"/>
      <g id="ITEM_4_ICON" transform="translate(-252, -32)" data-icon-size="64" stroke-linecap="round" stroke-linejoin="round" data-badge-treatment="clean">
        <g transform="translate(-12.571428571428571,-12.571428571428571) scale(2.7857142857142856)">
          <path d="M15.5 28C21.8513 28 27 22.8513 27 16.5C27 10.1487 21.8513 5 15.5 5C9.14873 5 4 10.1487 4 16.5C4 22.8513 9.14873 28 15.5 28Z" fill="#F4F4F4"/>
          <path d="M25.7663 7.73298C26.1431 7.9044 26.5609 8 27 8C28.65 8 30 6.65 30 5C30 3.35 28.65 2 27 2C25.35 2 24 3.35 24 5C24 5.43909 24.0956 5.85693 24.267 6.23373C21.9083 4.21752 18.8463 3 15.5 3C8.04416 3 2 9.04416 2 16.5C2 23.9558 8.04416 30 15.5 30C22.9558 30 29 23.9558 29 16.5C29 13.1537 27.7825 10.0917 25.7663 7.73298ZM25.39 4.99C25.39 4.1 26.11 3.38 27 3.38C27.88 3.38 28.61 4.1 28.61 4.99C28.61 5.88 27.89 6.6 27 6.6C26.11 6.6 25.39 5.88 25.39 4.99ZM26 16.5C26 22.299 21.299 27 15.5 27C9.70101 27 5 22.299 5 16.5C5 10.701 9.70101 6 15.5 6C21.299 6 26 10.701 26 16.5Z" fill="#F9C23C"/>
          <path d="M25.35 7.99994L23.99 6.63994L25.35 5.27994C25.72 4.90994 26.33 4.90994 26.71 5.27994C27.08 5.64994 27.08 6.25994 26.71 6.63994L25.35 7.99994Z" fill="#FFB02E"/>
          <path d="M13.2234 17.724L11.4099 20.21C11.2299 20.45 11.5299 20.75 11.7799 20.58L14.2735 18.7609L15.2099 24.7499C15.2599 25.0799 15.7399 25.0799 15.7899 24.7499L16.8663 17.8663L23.7499 16.7899C24.0799 16.7399 24.0799 16.2599 23.7499 16.2099L17.7609 15.2735L19.5799 12.78C19.7599 12.54 19.4599 12.24 19.2099 12.41L16.724 14.2234L15.7899 8.24994C15.7399 7.91994 15.2599 7.91994 15.2099 8.24994L14.1336 15.1336L7.24994 16.2099C6.91994 16.2599 6.91994 16.7399 7.24994 16.7899L13.2234 17.724Z" fill="#9B9B9B"/>
          <path d="M17.3382 15L20.9393 21.3271C21.1631 21.7255 20.7252 22.1629 20.3261 21.9394L14 18.3336L17.3382 15Z" fill="#9B9B9B"/>
          <path d="M13.6756 18L10.0605 11.672C9.83756 11.2741 10.2737 10.8373 10.6711 11.0606L17 14.671L13.6756 18Z" fill="#E5336D"/>
          <path d="M15.5 19C16.8807 19 18 17.8807 18 16.5C18 15.1193 16.8807 14 15.5 14C14.1193 14 13 15.1193 13 16.5C13 17.8807 14.1193 19 15.5 19Z" fill="#D3D3D3"/>
        </g>
      </g>
      <g transform="translate(-332, 0)">
        <path id="ITEM_4_TEXT_BG" d="M 26 -50 L -378 -50 L -420 -10 L -420 148 L -34 148 L 50 86 L 50 18 Z" fill="var(--panel)" fill-opacity="0.96" stroke="var(--primary-text)" stroke-opacity="0.12" stroke-width="1.5" filter="url(#svg1a454ac2-shadow)"/>
        <rect x="-402" y="-30" width="10" height="110" rx="5" fill="var(--accent-4)" opacity="0.7"/>
        <line x1="-24" y1="10" x2="-354" y2="10" stroke="var(--accent-4)" stroke-width="3" opacity="0.3"/>
        <text id="ITEM_4_HEAD" data-bg-id="ITEM_4_TEXT_BG" text-anchor="end" font-weight="700" font-size="32" fill="var(--accent-1)" x="-24.0" y="-30.0" fill-opacity="1.0" stroke="none" style="font-size: 31px; font-family: 'Segoe UI Variable Display', 'Aptos Display', 'Inter', 'Segoe UI', Helvetica, Arial, sans-serif; font-weight: 700; font-kerning: normal; font-feature-settings: &quot;kern&quot; 1, &quot;liga&quot; 1; letter-spacing:-0.4px;" data-final-font-size="31">
          <tspan x="-24.0" dy="26.52px">Trajectory Alignment</tspan>
        </text>
        <rect id="ITEM_4_HEAD_FRAME" x="-362" y="-30" width="338" height="36" fill="none"/>
        <text id="ITEM_4_BODY" data-bg-id="ITEM_4_TEXT_BG" text-anchor="end" font-size="22" fill="var(--primary-text)" opacity="0.92" x="-24.0" y="24.0" style="font-size: 23px; font-family: 'Segoe UI Variable Text', 'Aptos', 'Inter', 'Segoe UI', Helvetica, Arial, sans-serif; font-weight: 400; font-kerning: normal; font-feature-settings: &quot;kern&quot; 1, &quot;liga&quot; 1;" data-final-font-size="23">
          <tspan x="-24.0" dy="23.42px">Verify data against witness</tspan>
          <tspan x="-24.0" dy="26.45px">timing and fireball trajectory</tspan>
        </text>
        <rect id="ITEM_4_BODY_FRAME" x="-380" y="24" width="356" height="78" fill="none"/>
      </g>
    </g>
    <line id="PHX_SEQUENCE_MIDROUTE_ARROW_1" x1="960.0" y1="547.0" x2="960.0" y2="603.0" stroke="var(--muted-text)" opacity="0.92" stroke-width="5" stroke-linecap="round" marker-end="url(#svg1a454ac2-PHX_SEQUENCE_DIRECTION_ARROW)" data-direction-cue="forward"/>
  </g>
  <text id="SOURCE_NOTE" x="134.0" y="1058.0" fill="var(--muted-text)" opacity="1" style="font-family: var(--font-family); font-size: 20px;">Source: Sonic Booms | U.S. Geological Survey</text>
</svg>
